<?xml version="1.0" encoding="utf-8"?>
<!-- Generator: Adobe Illustrator 19.2.1, SVG Export Plug-In . SVG Version: 6.00 Build 0)  -->
<svg version="1.1" id="layer" xmlns="http://www.w3.org/2000/svg" xmlns:xlink="http://www.w3.org/1999/xlink" x="0px" y="0px"
	 viewBox="0 0 652 652" style="enable-background:new 0 0 652 652;" xml:space="preserve">
<style type="text/css">
	.st0{fill:none;}
	.st1{fill:#95C13D;}
	.st2{fill:#010101;}
</style>
<path class="st0" d="M260.4,279.9c-4.1-0.2-8,1.4-10.9,4.3c-3,3.3-4.7,7.6-4.5,12.1h30.9c0-4.4-1.5-8.7-4.3-12.1
	C268.6,281.2,264.6,279.7,260.4,279.9z"/>
<path class="st0" d="M70,285.7c-2.6-3.7-7-5.7-11.5-5.5c-5.7-0.5-11.1,2.5-13.7,7.6c-2.5,5.4-3.7,11.3-3.6,17.3
	c0,13.9,4,21.6,12.1,23.2c6.5,2,13.6-0.2,17.8-5.6c2.2-3.1,3.5-6.7,4-10.5c0.8-4.7,0.8-9.4,0-14.1C74.5,293.6,72.7,289.3,70,285.7z"
	/>
<path class="st0" d="M505.2,309.6c-3,0.4-5.8,1.8-7.9,4c-1.4,1.9-2.2,4.3-2.1,6.6c-0.1,2.7,0.9,5.3,2.7,7.3c2.2,1.8,5,2.6,7.9,2.4
	c4.9,0.3,9.7-1.5,13.3-4.9c3.4-3.6,5.1-8.4,4.9-13.3v-7.6c-3.8,1.7-7.7,3.1-11.8,4L505.2,309.6z"/>
<path class="st0" d="M183.9,279.9c-4.1-0.2-8,1.4-10.9,4.3c-3,3.3-4.6,7.6-4.5,12.1h30.9c0-4.4-1.5-8.7-4.3-12.1
	C192.1,281.2,188,279.7,183.9,279.9z"/>
<path class="st1" d="M143.6,264.2c-5.3,0-10.6,0.7-15.7,2.2c-5,1.3-9.6,3.5-13.7,6.6c-4.3,3.4-7.6,7.8-9.8,12.9
	c-2.5,6.3-3.7,13.1-3.5,19.8v39.1h21.2v-41.5c-0.4-4.8,1.1-9.6,4.3-13.3c3.6-3.1,8.3-4.6,13-4.3h6.9v-21.5h-3H143.6z"/>
<path class="st1" d="M183.3,262.4c-10.2-0.5-20.1,3.6-26.9,11.2c-6.7,8.6-10,19.4-9.4,30.3c-0.7,11.2,2.8,22.4,9.8,31.2
	c6.8,7.6,16.7,11.7,26.9,11.2c8.4,0.3,16.7-2.1,23.6-6.9c6.5-4.8,11-11.7,12.7-19.5h-14.1c-2-0.1-4,0.4-5.6,1.5
	c-2.1,1.8-4.4,3.5-6.7,5.1c-2.7,1.5-5.7,2.2-8.8,2.1c-4.5,0.3-8.8-1.5-11.8-4.9c-3.1-3.9-4.8-8.9-4.5-13.9h52.4
	c0.2-0.7,0.3-1.4,0.3-2.1v-3.1c0.7-11.2-2.8-22.3-9.8-31.2C204,265.7,193.8,261.8,183.3,262.4z M168.6,296.2
	c-0.1-4.5,1.5-8.8,4.5-12.1c2.9-2.9,6.8-4.4,10.9-4.3c4.2-0.2,8.2,1.3,11.2,4.3c2.7,3.4,4.2,7.7,4.3,12.1H168.6z"/>
<path class="st1" d="M259.9,262.4c-10.2-0.5-20.1,3.6-26.9,11.2c-6.7,8.6-10,19.4-9.4,30.3c-0.7,11.2,2.8,22.4,9.8,31.2
	c6.7,7.5,16.5,11.6,26.5,11.2c8.4,0.3,16.7-2.1,23.6-6.9c6.5-4.8,11-11.7,12.7-19.5h-13.8c-2-0.1-4,0.4-5.6,1.5
	c-2.1,1.8-4.4,3.5-6.7,5.1c-2.7,1.5-5.7,2.2-8.8,2.1c-4.5,0.3-8.8-1.5-11.8-4.9c-3.2-3.9-4.8-8.9-4.5-13.9h52.4
	c0.2-0.7,0.3-1.4,0.3-2.1v-3.1c0.7-11.2-2.8-22.3-9.8-31.2C280.5,265.8,270.4,261.8,259.9,262.4z M245.2,296.2
	c-0.1-4.5,1.5-8.8,4.5-12.1c2.9-2.9,6.8-4.4,10.9-4.3c4.2-0.2,8.2,1.3,11.2,4.3c2.7,3.4,4.2,7.7,4.3,12.1H245.2z"/>
<path class="st1" d="M360.2,269.3c-7.4-4.6-15.9-7-24.5-6.9c-8.5,0.3-16.7,3-23.8,7.6c-7.2,4.7-10.8,13.9-10.8,27.5v47.2h21.2v-51.4
	c-0.3-4,1.2-7.9,4.3-10.6c2.8-2.2,6.2-3.4,9.8-3.3c3.5,0,7,1.2,9.8,3.3c3.1,2.6,4.7,6.6,4.4,10.6v41.1c-0.3,5.4,3.8,10,9.2,10.3
	c0.4,0,0.7,0,1.1,0h10.6v-47.3C371.4,283.3,367.6,274,360.2,269.3z"/>
<path class="st2" d="M466.2,264.2c-4.7-0.5-8.9,2.7-9.8,7.3l-11.2,48.4l-10.8-55.7H413l-11.3,55.7l-12.9-55.7h-20.6l22.1,80.5h21.1
	l12.5-57.5l12.4,57.5h21.2l22.1-80.5H466.2z"/>
<path class="st2" d="M534.9,268.1c-7.7-4.4-16.6-6.4-25.4-5.8c-8.4-0.6-16.6,1.9-23.3,6.9c-4.7,3.8-7.8,9.4-8.5,15.4H498
	c0.9-2.1,2.7-3.8,4.9-4.5c2.4-0.8,5-1.3,7.6-1.2c2.9,0.1,5.8,0.5,8.6,1.4c2.9,0.4,5,3,4.9,5.9c0,4.1-4.4,6.8-13.3,7.9l-4.6,0.6
	l-3.8,0.6c-6.8,0.9-13.3,3.3-18.9,7.3c-5.5,4.4-8.4,11.4-7.7,18.4c-0.7,7.5,2.3,14.8,8.2,19.5c5.6,4,12.2,6,19.1,5.9
	c4.2,0,8.4-0.3,12.6-0.7c4.7-0.5,9.3-1.9,13.5-4.1c4.3-2.3,7.9-5.6,10.5-9.8c3.2-5.8,4.8-12.3,4.4-18.9V285
	C543.9,278.2,540.6,271.8,534.9,268.1z M523.8,311.7c0.3,4.9-1.5,9.7-4.9,13.3c-3.6,3.4-8.4,5.1-13.3,4.9c-2.8,0.2-5.6-0.7-7.9-2.4
	c-1.9-1.9-2.9-4.6-2.7-7.3c-0.1-2.4,0.7-4.7,2.1-6.6c2.1-2.1,4.9-3.5,7.9-4l6.9-1.5c4.1-0.8,8.1-2.1,11.9-3.9V311.7z"/>
<path class="st2" d="M605.9,264.2c-4.7-0.5-8.9,2.7-9.8,7.3L581.9,321l-16.3-56.8h-23.3l28.1,80.2c1.4,4.2,0.9,7.3-1.4,9.2
	c-2.8,2.1-6.3,3.1-9.8,2.9h-5.8v16.7h2.2c0.8,0.1,1.5,0.2,2.2,0.4h4.3c6.2,0.5,12.3-0.8,17.8-3.6c4.3-3.8,7.4-8.7,9.1-14.2
	l31.2-91.6H605.9z"/>
<path class="st1" d="M95.9,262.4H85.4c-2.8-0.1-5.5,0.9-7.4,2.9c-0.8,0.8-1.5,1.8-2,2.8c-3.6-3.2-8.1-5.7-19.3-5.7
	c-12.7,0-21.9,3.9-27.7,11.6c-6.1,8.9-9.1,19.6-8.6,30.4c-0.4,9.1,1.8,18.1,6.5,25.9c3.7,6,9.1,10.7,15.6,13.5
	c3.6,1.5,7.5,2.3,11.5,2.3h0.6c7.3,0.4,14.6-1.6,20.8-5.5c0,4.3-0.9,8.5-2.5,12.5c-2.4,5.5-8.1,8.8-14,8.3c-3.1,0.1-6.1-0.6-8.8-2.1
	c-2.3-1.5-4.5-3.1-6.7-4.9c-1.7-1.1-3.6-1.6-5.6-1.5h-14v0.2c3.8,16.4,18.9,27.7,35.7,26.5c8.8,0.3,17.5-2.5,24.4-7.9
	c7.7-6,12.4-15.7,12.4-29.8v-38.3c0-1.4,0-2.8,0-4.1L95.9,262.4z M74.9,312.2c-0.4,3.8-1.8,7.4-4,10.5c-4.2,5.4-11.3,7.6-17.8,5.6
	C45,326.7,41,318.9,41,305c0-6,1.3-11.9,3.9-17.3c2.6-5.1,8-8.1,13.7-7.6c4.5-0.3,8.8,1.8,11.5,5.4c2.6,3.7,4.3,7.9,4.9,12.4
	C75.7,302.7,75.7,307.5,74.9,312.2z"/>
</svg>
